<svg width="222" height="25" viewBox="0 0 222 25" fill="none" xmlns="http://www.w3.org/2000/svg">
<path d="M34.5189 1.97721C34.2199 2.01072 33.9209 2.08892 33.6219 2.2118C33.3229 2.3235 33.0287 2.46872 32.7394 2.64745C32.2957 2.93789 31.9774 3.25626 31.7846 3.60255C31.6013 3.94884 31.4325 4.36774 31.2782 4.85925C30.7477 6.55719 29.9279 9.27726 28.8188 13.0194C27.7193 16.7616 26.5715 20.649 25.3756 24.6816H22.4676L17.0424 7.00402L12.1525 24.6816H9.24457C7.63389 19.2527 6.39935 15.0748 5.54096 12.1481C4.68257 9.21023 3.9592 6.7471 3.37087 4.75871C3.18762 4.1555 2.98025 3.71984 2.74878 3.45174C2.5173 3.17248 2.21831 2.89321 1.85181 2.61394C1.5914 2.41287 1.3117 2.26765 1.01271 2.17828C0.723363 2.07775 0.385793 1.99955 0 1.9437V0.636729H10.9517V1.91019C10.3055 1.99955 9.82327 2.08892 9.50499 2.17828C9.18671 2.25648 8.93594 2.34026 8.75269 2.42962C8.57908 2.51899 8.47299 2.61394 8.43441 2.71448C8.39583 2.81501 8.37654 2.90438 8.37654 2.98257C8.37654 3.13896 8.39101 3.28977 8.41994 3.43499C8.45852 3.58021 8.4971 3.74777 8.53568 3.93767C8.76716 4.80898 9.23493 6.46224 9.939 8.89745C10.6431 11.3327 11.5111 14.3543 12.5431 17.9625L17.216 0.636729H20.2831L25.7083 18.4987C26.5088 15.6278 27.1454 13.2819 27.618 11.4611C28.1002 9.6403 28.5053 8.08199 28.8332 6.78619C29.0261 5.99307 29.1805 5.32842 29.2962 4.79223C29.4119 4.25603 29.4698 3.79245 29.4698 3.40147C29.4698 3.16689 29.3733 2.96582 29.1805 2.79826C28.9972 2.6307 28.7464 2.48548 28.4282 2.3626C28.1581 2.26206 27.8061 2.18387 27.372 2.12802C26.9477 2.06099 26.5763 2.01072 26.2581 1.97721V0.636729H34.5189V1.97721Z" fill="#C4C4C4"/>
<path d="M46.2807 24.4135H34.895V23.1066C35.1554 23.0842 35.5364 23.0507 36.0379 23.006C36.5491 22.9613 36.9011 22.8943 37.094 22.805C37.4509 22.6374 37.692 22.4196 37.8174 22.1515C37.9524 21.8722 38.0199 21.5203 38.0199 21.0958V4.23928C38.0199 3.85947 37.9572 3.52435 37.8319 3.23391C37.7065 2.94348 37.4605 2.70889 37.094 2.53016C36.8626 2.41845 36.5202 2.30675 36.0669 2.19504C35.6136 2.07216 35.2229 1.98838 34.895 1.9437V0.636729H46.2807V1.9437C45.9914 1.97721 45.6297 2.02748 45.1957 2.0945C44.7617 2.15036 44.3952 2.23414 44.0962 2.34584C43.72 2.49106 43.4693 2.72006 43.3439 3.03284C43.2185 3.33445 43.1558 3.68074 43.1558 4.07172V20.9115C43.1558 21.3137 43.2185 21.66 43.3439 21.9504C43.4789 22.2297 43.7297 22.4587 44.0962 22.6374C44.2987 22.7379 44.6315 22.8385 45.0944 22.939C45.567 23.0284 45.9625 23.0842 46.2807 23.1066V24.4135Z" fill="#C4C4C4"/>
<path d="M71.7865 1.9437C71.5165 1.97721 71.1307 2.03865 70.6291 2.12802C70.1276 2.21738 69.6743 2.43521 69.2692 2.7815C68.9124 3.08311 68.6568 3.60255 68.5024 4.33981C68.3578 5.06591 68.2854 6.13829 68.2854 7.55697V24.5476H65.7103L52.9212 6.16622V17.3257C52.9212 18.7109 52.9984 19.7665 53.1527 20.4926C53.3167 21.2076 53.5771 21.7326 53.9339 22.0677C54.1943 22.3134 54.6091 22.5313 55.1781 22.7212C55.7472 22.9111 56.2005 23.0395 56.538 23.1066V24.4135H47.713V23.1066C48.0891 23.0731 48.5183 22.9949 49.0006 22.872C49.4925 22.7379 49.9024 22.5369 50.2303 22.2688C50.6064 21.9448 50.862 21.4589 50.9971 20.811C51.1417 20.1519 51.2141 19.0516 51.2141 17.5101V6.25C51.2141 5.69147 51.1369 5.16644 50.9826 4.67493C50.8379 4.17225 50.6064 3.74218 50.2882 3.38472C49.9506 3.00491 49.56 2.70889 49.1163 2.49665C48.6823 2.27324 48.1856 2.10009 47.6262 1.97721V0.636729H55.3517L66.5783 16.7225V7.72453C66.5783 6.29468 66.4963 5.23347 66.3324 4.54088C66.1684 3.83713 65.908 3.31769 65.5511 2.98257C65.2714 2.72565 64.8567 2.50782 64.3069 2.32909C63.7572 2.13919 63.3135 2.01072 62.976 1.9437V0.636729H71.7865V1.9437Z" fill="#C4C4C4"/>
<path d="M91.2884 6.70241H90.1889C89.9092 5.79759 89.4269 4.88159 88.7421 3.95442C88.0574 3.02726 87.3774 2.47989 86.7022 2.31233C86.4129 2.23414 86.0078 2.18945 85.487 2.17828C84.9758 2.15594 84.5514 2.14477 84.2139 2.14477H81.2336V11.3271H83.3458C83.8763 11.3271 84.3586 11.2545 84.7926 11.1092C85.2266 10.964 85.622 10.6848 85.9789 10.2714C86.2007 10.0145 86.4225 9.56211 86.6444 8.91421C86.8759 8.26631 87.0253 7.70219 87.0929 7.22185H88.1924V17.1414H87.0929C87.035 16.6723 86.8855 16.0858 86.6444 15.382C86.4129 14.6671 86.1911 14.1756 85.9789 13.9075C85.6606 13.5054 85.2845 13.2317 84.8504 13.0865C84.4164 12.9301 83.9149 12.8519 83.3458 12.8519H81.2336V19.7051C81.2336 20.42 81.277 20.9897 81.3638 21.4142C81.4603 21.8275 81.6339 22.1459 81.8847 22.3693C82.1258 22.5815 82.4537 22.7212 82.8684 22.7882C83.2928 22.8552 83.8667 22.8887 84.59 22.8887C84.9276 22.8887 85.3327 22.8832 85.8053 22.872C86.2779 22.8608 86.6926 22.8273 87.0495 22.7714C87.4545 22.7156 87.8307 22.6318 88.1779 22.5201C88.5348 22.4084 88.8 22.2464 88.9736 22.0342C89.4366 21.4868 89.9574 20.6546 90.5361 19.5375C91.1148 18.4093 91.4957 17.5659 91.679 17.0074H92.7351L92.3445 24.4135H73.0886V23.1066C73.3586 23.0842 73.7251 23.0395 74.1881 22.9725C74.651 22.9055 74.979 22.8273 75.1719 22.7379C75.5384 22.5592 75.7843 22.3358 75.9097 22.0677C76.0351 21.7884 76.0978 21.4366 76.0978 21.0121V4.23928C76.0978 3.83713 76.0447 3.5076 75.9386 3.25067C75.8325 2.98257 75.5769 2.7424 75.1719 2.53016C74.9211 2.39611 74.569 2.27324 74.1157 2.16153C73.6624 2.04982 73.32 1.97721 73.0886 1.9437V0.636729H91.2884V6.70241Z" fill="#C4C4C4"/>
<path d="M124.809 24.4135H116.302C116.071 24.1119 115.772 23.721 115.405 23.2406C115.039 22.7491 114.725 22.3134 114.465 21.9336C113.443 23.0284 112.42 23.8159 111.398 24.2962C110.385 24.7654 109.305 25 108.157 25C106.354 25 104.873 24.4359 103.716 23.3076C102.568 22.1794 101.994 20.7105 101.994 18.9008C101.994 17.996 102.095 17.2196 102.298 16.5717C102.51 15.9238 102.848 15.2759 103.311 14.628C103.754 14.0025 104.304 13.4439 104.96 12.9524C105.616 12.4497 106.354 11.9806 107.173 11.5449C106.305 10.2714 105.698 9.18789 105.351 8.29424C105.013 7.40058 104.844 6.48458 104.844 5.54625C104.844 3.93767 105.423 2.61394 106.58 1.57507C107.738 0.525022 109.122 0 110.732 0C112.237 0 113.457 0.413315 114.393 1.23995C115.328 2.06658 115.796 3.1613 115.796 4.52413C115.796 5.70822 115.516 6.76944 114.957 7.70777C114.397 8.63494 113.467 9.54535 112.165 10.439C113.216 12.0029 114.026 13.1814 114.595 13.9745C115.174 14.7565 115.941 15.7898 116.895 17.0744C117.503 16.0355 117.956 15.0804 118.255 14.2091C118.564 13.3378 118.718 12.6061 118.718 12.0141C118.718 11.679 118.501 11.4109 118.067 11.2098C117.643 10.9975 117.04 10.8021 116.259 10.6233V9.34987H124.346V10.6233C123.468 10.7127 122.817 10.8356 122.393 10.992C121.978 11.1483 121.568 11.4667 121.163 11.9471C120.99 12.1481 120.773 12.5056 120.512 13.0194C120.261 13.5221 120.02 14.008 119.789 14.4772C119.509 15.0469 119.21 15.6445 118.892 16.2701C118.574 16.8957 118.188 17.5492 117.735 18.2306C118.622 19.437 119.35 20.3418 119.919 20.945C120.498 21.5371 120.97 21.9448 121.337 22.1682C121.752 22.4252 122.277 22.6318 122.914 22.7882C123.55 22.9334 124.182 23.0284 124.809 23.0731V24.4135ZM113.597 4.77547C113.597 3.79245 113.39 3.02167 112.975 2.46314C112.57 1.89343 112.039 1.60858 111.383 1.60858C110.756 1.60858 110.25 1.84316 109.864 2.31233C109.479 2.77033 109.286 3.37355 109.286 4.12198C109.286 4.76988 109.464 5.50715 109.821 6.33378C110.178 7.14924 110.728 8.14343 111.47 9.31635C112.203 8.72431 112.738 8.03731 113.076 7.25536C113.423 6.46224 113.597 5.63561 113.597 4.77547ZM113.698 20.8445C112.888 19.7163 111.943 18.4037 110.863 16.9068C109.792 15.41 108.794 13.9857 107.868 12.634C107.357 13.2149 106.985 13.8963 106.754 14.6783C106.532 15.4491 106.421 16.2254 106.421 17.0074C106.421 18.4931 106.831 19.7051 107.651 20.6434C108.471 21.5818 109.512 22.0509 110.776 22.0509C111.364 22.0509 111.875 21.9672 112.309 21.7996C112.743 21.6209 113.206 21.3025 113.698 20.8445Z" fill="#C4C4C4"/>
<path d="M151.342 13.5054C151.959 13.9969 152.461 14.6168 152.847 15.3653C153.232 16.1025 153.425 16.9739 153.425 17.9792C153.425 19.1857 153.203 20.2078 152.76 21.0456C152.326 21.8722 151.699 22.5257 150.879 23.006C150.011 23.5199 149.008 23.8829 147.87 24.0952C146.741 24.3074 145.41 24.4135 143.877 24.4135H133.214V23.1066C133.513 23.0731 133.89 23.0228 134.343 22.9558C134.796 22.8887 135.115 22.8105 135.298 22.7212C135.655 22.5536 135.896 22.3358 136.021 22.0677C136.156 21.7884 136.224 21.431 136.224 20.9953V4.23928C136.224 3.83713 136.171 3.50201 136.065 3.23391C135.958 2.96582 135.703 2.73123 135.298 2.53016C134.999 2.38494 134.652 2.26765 134.256 2.17828C133.861 2.07775 133.513 1.99955 133.214 1.9437V0.636729H144.369C147.175 0.636729 149.201 1.08356 150.445 1.97721C151.689 2.87087 152.311 4.18901 152.311 5.93164C152.311 6.73593 152.171 7.44526 151.892 8.05965C151.612 8.66287 151.212 9.18789 150.691 9.63472C150.218 10.048 149.654 10.4055 148.998 10.7071C148.342 11.0087 147.638 11.2601 146.886 11.4611V11.7795C147.638 11.8689 148.42 12.0643 149.23 12.366C150.04 12.6564 150.744 13.0362 151.342 13.5054ZM146.683 6.35054C146.683 5.0324 146.36 4.00469 145.714 3.26743C145.078 2.53016 144.118 2.16153 142.835 2.16153C142.652 2.16153 142.411 2.1727 142.112 2.19504C141.822 2.20621 141.572 2.21738 141.36 2.22855V11.0422H142.112C143.674 11.0422 144.827 10.6233 145.57 9.78552C146.312 8.93655 146.683 7.79155 146.683 6.35054ZM147.696 17.7614C147.696 16.1081 147.272 14.8403 146.423 13.9578C145.574 13.0753 144.354 12.634 142.763 12.634C142.58 12.634 142.334 12.6452 142.025 12.6676C141.726 12.6787 141.504 12.6899 141.36 12.7011V21.3975C141.446 21.8108 141.716 22.1626 142.17 22.4531C142.623 22.7323 143.173 22.872 143.819 22.872C144.967 22.872 145.897 22.4252 146.611 21.5315C147.335 20.6378 147.696 19.3811 147.696 17.7614Z" fill="#C4C4C4"/>
<path d="M173.867 6.70241H172.768C172.488 5.79759 172.006 4.88159 171.321 3.95442C170.636 3.02726 169.956 2.47989 169.281 2.31233C168.992 2.23414 168.587 2.18945 168.066 2.17828C167.555 2.15594 167.131 2.14477 166.793 2.14477H163.813V11.3271H165.925C166.455 11.3271 166.938 11.2545 167.372 11.1092C167.806 10.964 168.201 10.6848 168.558 10.2714C168.78 10.0145 169.002 9.56211 169.223 8.91421C169.455 8.26631 169.604 7.70219 169.672 7.22185H170.771V17.1414H169.672C169.614 16.6723 169.465 16.0858 169.223 15.382C168.992 14.6671 168.77 14.1756 168.558 13.9075C168.24 13.5054 167.864 13.2317 167.43 13.0865C166.995 12.9301 166.494 12.8519 165.925 12.8519H163.813V19.7051C163.813 20.42 163.856 20.9897 163.943 21.4142C164.039 21.8275 164.213 22.1459 164.464 22.3693C164.705 22.5815 165.033 22.7212 165.448 22.7882C165.872 22.8552 166.446 22.8887 167.169 22.8887C167.507 22.8887 167.912 22.8832 168.384 22.872C168.857 22.8608 169.272 22.8273 169.629 22.7714C170.034 22.7156 170.41 22.6318 170.757 22.5201C171.114 22.4084 171.379 22.2464 171.553 22.0342C172.016 21.4868 172.536 20.6546 173.115 19.5375C173.694 18.4093 174.075 17.5659 174.258 17.0074H175.314L174.924 24.4135H155.668V23.1066C155.938 23.0842 156.304 23.0395 156.767 22.9725C157.23 22.9055 157.558 22.8273 157.751 22.7379C158.117 22.5592 158.363 22.3358 158.489 22.0677C158.614 21.7884 158.677 21.4366 158.677 21.0121V4.23928C158.677 3.83713 158.624 3.5076 158.518 3.25067C158.412 2.98257 158.156 2.7424 157.751 2.53016C157.5 2.39611 157.148 2.27324 156.695 2.16153C156.242 2.04982 155.899 1.97721 155.668 1.9437V0.636729H173.867V6.70241Z" fill="#C4C4C4"/>
<path d="M195.25 6.70241H194.151C193.871 5.79759 193.389 4.88159 192.704 3.95442C192.019 3.02726 191.339 2.47989 190.664 2.31233C190.375 2.23414 189.969 2.18945 189.449 2.17828C188.938 2.15594 188.513 2.14477 188.176 2.14477H185.195V11.3271H187.308C187.838 11.3271 188.32 11.2545 188.754 11.1092C189.188 10.964 189.584 10.6848 189.941 10.2714C190.162 10.0145 190.384 9.56211 190.606 8.91421C190.838 8.26631 190.987 7.70219 191.055 7.22185H192.154V17.1414H191.055C190.997 16.6723 190.847 16.0858 190.606 15.382C190.375 14.6671 190.153 14.1756 189.941 13.9075C189.622 13.5054 189.246 13.2317 188.812 13.0865C188.378 12.9301 187.877 12.8519 187.308 12.8519H185.195V19.7051C185.195 20.42 185.239 20.9897 185.326 21.4142C185.422 21.8275 185.596 22.1459 185.846 22.3693C186.087 22.5815 186.415 22.7212 186.83 22.7882C187.254 22.8552 187.828 22.8887 188.552 22.8887C188.889 22.8887 189.294 22.8832 189.767 22.872C190.24 22.8608 190.654 22.8273 191.011 22.7714C191.416 22.7156 191.792 22.6318 192.14 22.5201C192.496 22.4084 192.762 22.2464 192.935 22.0342C193.398 21.4868 193.919 20.6546 194.498 19.5375C195.076 18.4093 195.457 17.5659 195.641 17.0074H196.697L196.306 24.4135H177.05V23.1066C177.32 23.0842 177.687 23.0395 178.15 22.9725C178.613 22.9055 178.941 22.8273 179.134 22.7379C179.5 22.5592 179.746 22.3358 179.871 22.0677C179.997 21.7884 180.059 21.4366 180.059 21.0121V4.23928C180.059 3.83713 180.006 3.5076 179.9 3.25067C179.794 2.98257 179.539 2.7424 179.134 2.53016C178.883 2.39611 178.531 2.27324 178.077 2.16153C177.624 2.04982 177.282 1.97721 177.05 1.9437V0.636729H195.25V6.70241Z" fill="#C4C4C4"/>
<path d="M222 24.4135H214.13C212.77 22.0007 211.637 20.0793 210.73 18.6495C209.833 17.2196 208.714 15.5664 207.374 13.6897H206.578V20.9115C206.578 21.3137 206.641 21.6544 206.766 21.9336C206.901 22.2129 207.152 22.4475 207.518 22.6374C207.702 22.7268 207.986 22.8217 208.372 22.9223C208.767 23.0116 209.105 23.0731 209.385 23.1066V24.4135H198.433V23.1066C198.713 23.0731 199.079 23.0284 199.532 22.9725C199.995 22.9055 200.323 22.8273 200.516 22.7379C200.883 22.5592 201.129 22.3358 201.254 22.0677C201.379 21.7884 201.442 21.4366 201.442 21.0121V4.23928C201.442 3.83713 201.389 3.50201 201.283 3.23391C201.177 2.96582 200.921 2.73123 200.516 2.53016C200.208 2.38494 199.841 2.26206 199.417 2.16153C199.002 2.06099 198.674 1.98838 198.433 1.9437V0.636729H209.949C212.524 0.636729 214.477 1.1059 215.808 2.04424C217.149 2.9714 217.819 4.37891 217.819 6.26676C217.819 7.93119 217.404 9.27167 216.575 10.2882C215.755 11.2936 214.501 12.0811 212.813 12.6508C213.469 13.6338 214.231 14.7732 215.099 16.069C215.977 17.3648 216.888 18.6886 217.833 20.0402C218.132 20.4759 218.538 21.0121 219.049 21.6488C219.57 22.2744 220.028 22.6597 220.423 22.805C220.645 22.8832 220.925 22.9502 221.262 23.006C221.609 23.0619 221.855 23.0954 222 23.1066V24.4135ZM212.148 6.73593C212.148 5.14969 211.762 3.99352 210.99 3.26743C210.228 2.53016 209.139 2.16153 207.721 2.16153H206.578V12.1146H207.677C209.095 12.1146 210.195 11.6845 210.976 10.8244C211.757 9.96425 212.148 8.60143 212.148 6.73593Z" fill="#C4C4C4"/>
</svg>
