<svg width="325" height="35" viewBox="0 0 325 35" fill="none" xmlns="http://www.w3.org/2000/svg">
<path d="M50.5344 2.7681C50.0967 2.81501 49.659 2.92449 49.2212 3.09651C48.7835 3.2529 48.3529 3.45621 47.9293 3.70643C47.2798 4.11305 46.8138 4.55876 46.5314 5.04357C46.2632 5.52837 46.0161 6.11484 45.7902 6.80295C45.0136 9.18007 43.8134 12.9882 42.1896 18.2272C40.58 23.4663 38.8997 28.9086 37.1489 34.5543H32.8918L24.9495 9.80563L17.7908 34.5543H13.5337C11.1757 26.9538 9.36842 21.1048 8.11176 17.0074C6.85511 12.8943 5.79613 9.44593 4.93483 6.6622C4.66656 5.81769 4.36298 5.20777 4.02411 4.83244C3.68524 4.44147 3.24753 4.05049 2.71098 3.65952C2.32975 3.37802 1.92028 3.17471 1.48257 3.0496C1.05898 2.90885 0.564788 2.79937 0 2.72118V0.891421H16.0329V2.67426C15.0869 2.79937 14.3809 2.92449 13.915 3.0496C13.449 3.15907 13.0819 3.27636 12.8136 3.40147C12.5595 3.52659 12.4042 3.65952 12.3477 3.80027C12.2912 3.94102 12.263 4.06613 12.263 4.1756C12.263 4.39455 12.2841 4.60567 12.3265 4.80898C12.383 5.01229 12.4394 5.24687 12.4959 5.51273C12.8348 6.73257 13.5196 9.04714 14.5503 12.4564C15.5811 15.8657 16.8519 20.0961 18.3627 25.1475L25.2037 0.891421H29.6937L37.636 25.8981C38.808 21.8789 39.7399 18.5947 40.4317 16.0456C41.1377 13.4964 41.7308 11.3148 42.2108 9.50067C42.4932 8.3903 42.7191 7.45979 42.8886 6.70912C43.058 5.95844 43.1427 5.30943 43.1427 4.76206C43.1427 4.43365 43.0015 4.15214 42.7191 3.91756C42.4509 3.68298 42.0837 3.47967 41.6178 3.30764C41.2224 3.16689 40.7071 3.05742 40.0717 2.97922C39.4504 2.88539 38.9068 2.81501 38.4409 2.7681V0.891421H50.5344V2.7681Z" fill="white"/>
<path d="M67.7533 34.179H51.085V32.3492C51.4663 32.3179 52.024 32.271 52.7582 32.2084C53.5066 32.1459 54.0219 32.0521 54.3043 31.9269C54.8268 31.6924 55.1798 31.3874 55.3633 31.0121C55.561 30.6211 55.6598 30.1285 55.6598 29.5342V5.93499C55.6598 5.40326 55.5681 4.93409 55.3845 4.52748C55.2009 4.12087 54.8409 3.79245 54.3043 3.54223C53.9655 3.38584 53.4642 3.22945 52.8006 3.07306C52.137 2.90103 51.5651 2.78374 51.085 2.72118V0.891421H67.7533V2.72118C67.3298 2.7681 66.8003 2.83847 66.1649 2.93231C65.5295 3.0105 64.9929 3.12779 64.5552 3.28418C64.0046 3.48749 63.6374 3.80809 63.4539 4.24598C63.2703 4.66823 63.1786 5.15304 63.1786 5.7004V29.2761C63.1786 29.8391 63.2703 30.3239 63.4539 30.7306C63.6516 31.1215 64.0187 31.4421 64.5552 31.6924C64.8517 31.8331 65.3389 31.9739 66.0166 32.1146C66.7085 32.2397 67.2874 32.3179 67.7533 32.3492V34.179Z" fill="white"/>
<path d="M105.093 2.72118C104.698 2.7681 104.133 2.85411 103.399 2.97922C102.664 3.10433 102.001 3.40929 101.408 3.8941C100.885 4.31635 100.511 5.04357 100.285 6.07574C100.073 7.09227 99.9674 8.59361 99.9674 10.5798V34.3666H96.1975L77.4748 8.63271V24.256C77.4748 26.1953 77.5877 27.6731 77.8136 28.6897C78.0537 29.6906 78.4349 30.4256 78.9573 30.8948C79.3385 31.2388 79.9457 31.5438 80.7788 31.8097C81.6118 32.0755 82.2755 32.2554 82.7696 32.3492V34.179H69.8501V32.3492C70.4008 32.3023 71.0291 32.1928 71.7351 32.0208C72.4552 31.8331 73.0553 31.5516 73.5354 31.1763C74.086 30.7227 74.4602 30.0424 74.6579 29.1354C74.8697 28.2127 74.9756 26.6723 74.9756 24.5141V8.75C74.9756 7.96805 74.8626 7.23302 74.6367 6.54491C74.4249 5.84115 74.086 5.23905 73.6201 4.73861C73.1259 4.20688 72.554 3.79245 71.9045 3.49531C71.2691 3.18253 70.542 2.94013 69.723 2.7681V0.891421H81.0329L97.4682 23.4115V10.8143C97.4682 8.81256 97.3482 7.32685 97.1082 6.35724C96.8682 5.37198 96.4869 4.64477 95.9645 4.1756C95.555 3.81591 94.9479 3.51095 94.143 3.26072C93.3382 2.99486 92.6887 2.81501 92.1945 2.72118V0.891421H105.093V2.72118Z" fill="white"/>
<path d="M133.643 9.38338H132.033C131.624 8.11662 130.918 6.83423 129.915 5.53619C128.913 4.23816 127.917 3.47185 126.929 3.23727C126.505 3.12779 125.912 3.06524 125.15 3.0496C124.402 3.01832 123.78 3.00268 123.286 3.00268H118.923V15.8579H122.015C122.792 15.8579 123.498 15.7563 124.133 15.5529C124.769 15.3496 125.348 14.9587 125.87 14.38C126.195 14.0203 126.52 13.387 126.844 12.4799C127.183 11.5728 127.402 10.7831 127.501 10.1106H129.11V23.998H127.501C127.416 23.3412 127.197 22.5201 126.844 21.5349C126.505 20.534 126.181 19.8458 125.87 19.4705C125.404 18.9075 124.853 18.5244 124.218 18.321C123.583 18.1021 122.848 17.9926 122.015 17.9926H118.923V27.5871C118.923 28.588 118.987 29.3856 119.114 29.9799C119.255 30.5585 119.509 31.0042 119.876 31.317C120.229 31.6142 120.709 31.8097 121.316 31.9035C121.938 31.9973 122.778 32.0442 123.837 32.0442C124.331 32.0442 124.924 32.0364 125.616 32.0208C126.308 32.0051 126.915 31.9582 127.437 31.88C128.03 31.8018 128.581 31.6845 129.089 31.5281C129.612 31.3718 130 31.145 130.254 30.8479C130.932 30.0815 131.694 28.9164 132.542 27.3525C133.389 25.773 133.946 24.5923 134.215 23.8103H135.761L135.189 34.179H106.999V32.3492C107.394 32.3179 107.931 32.2554 108.609 32.1615C109.286 32.0677 109.766 31.9582 110.049 31.8331C110.585 31.5829 110.945 31.2701 111.129 30.8948C111.313 30.5038 111.404 30.0112 111.404 29.4169V5.93499C111.404 5.37198 111.327 4.91063 111.171 4.55094C111.016 4.1756 110.642 3.83937 110.049 3.54223C109.682 3.35456 109.166 3.18253 108.503 3.02614C107.839 2.86975 107.338 2.7681 106.999 2.72118V0.891421H133.643V9.38338Z" fill="white"/>
<path d="M182.716 34.179H170.262C169.923 33.7567 169.486 33.2093 168.949 32.5369C168.413 31.8487 167.954 31.2388 167.573 30.7071C166.076 32.2397 164.579 33.3423 163.082 34.0147C161.6 34.6716 160.018 35 158.338 35C155.698 35 153.53 34.2102 151.836 32.6307C150.156 31.0512 149.316 28.9946 149.316 26.4611C149.316 25.1944 149.464 24.1075 149.761 23.2004C150.071 22.2933 150.565 21.3863 151.243 20.4792C151.893 19.6034 152.697 18.8215 153.658 18.1334C154.618 17.4296 155.698 16.7728 156.898 16.1629C155.627 14.38 154.738 12.863 154.229 11.6119C153.735 10.3608 153.488 9.07842 153.488 7.76474C153.488 5.51273 154.335 3.65952 156.03 2.20509C157.724 0.735031 159.75 0 162.108 0C164.311 0 166.097 0.578642 167.467 1.73593C168.836 2.89321 169.521 4.42583 169.521 6.33378C169.521 7.99151 169.112 9.47721 168.293 10.7909C167.474 12.0889 166.111 13.3635 164.205 14.6146C165.744 16.8041 166.93 18.454 167.763 19.5643C168.61 20.6591 169.733 22.1057 171.131 23.9042C172.02 22.4497 172.684 21.1126 173.122 19.8928C173.573 18.6729 173.799 17.6486 173.799 16.8197C173.799 16.3505 173.482 15.9752 172.846 15.6937C172.225 15.3966 171.342 15.1229 170.199 14.8727V13.0898H182.038V14.8727C180.753 14.9978 179.8 15.1698 179.179 15.3887C178.572 15.6077 177.972 16.0534 177.379 16.7259C177.124 17.0074 176.807 17.5078 176.426 18.2272C176.058 18.931 175.705 19.6113 175.367 20.2681C174.957 21.0657 174.519 21.9024 174.053 22.7782C173.588 23.6539 173.023 24.5688 172.359 25.5228C173.658 27.2118 174.724 28.4785 175.557 29.3231C176.404 30.1519 177.096 30.7227 177.633 31.0355C178.24 31.3952 179.009 31.6845 179.941 31.9035C180.873 32.1068 181.798 32.2397 182.716 32.3023V34.179ZM166.302 6.68566C166.302 5.30943 165.998 4.23034 165.391 3.44839C164.798 2.6508 164.021 2.25201 163.061 2.25201C162.143 2.25201 161.402 2.58043 160.837 3.23727C160.273 3.87846 159.99 4.72297 159.99 5.77078C159.99 6.67784 160.251 7.71001 160.774 8.86729C161.296 10.0089 162.101 11.4008 163.188 13.0429C164.261 12.214 165.045 11.2522 165.539 10.1575C166.048 9.04714 166.302 7.88986 166.302 6.68566ZM166.45 29.1823C165.264 27.6028 163.88 25.7652 162.299 23.6696C160.732 21.574 159.27 19.58 157.915 17.6877C157.166 18.5009 156.623 19.4549 156.284 20.5496C155.959 21.6287 155.797 22.7156 155.797 23.8103C155.797 25.8903 156.397 27.5871 157.597 28.9008C158.797 30.2145 160.322 30.8713 162.172 30.8713C163.033 30.8713 163.781 30.754 164.417 30.5194C165.052 30.2692 165.73 29.8235 166.45 29.1823Z" fill="white"/>
<path d="M221.559 18.9075C222.463 19.5956 223.197 20.4636 223.762 21.5114C224.327 22.5436 224.609 23.7634 224.609 25.1709C224.609 26.8599 224.284 28.2909 223.635 29.4638C222.999 30.6211 222.082 31.536 220.881 32.2084C219.611 32.9278 218.142 33.4361 216.476 33.7332C214.824 34.0304 212.876 34.179 210.631 34.179H195.021V32.3492C195.459 32.3023 196.01 32.2319 196.673 32.1381C197.337 32.0442 197.803 31.9348 198.071 31.8097C198.593 31.5751 198.946 31.2701 199.13 30.8948C199.328 30.5038 199.427 30.0033 199.427 29.3934V5.93499C199.427 5.37198 199.349 4.90281 199.194 4.52748C199.038 4.15214 198.664 3.82373 198.071 3.54223C197.633 3.33892 197.125 3.17471 196.546 3.0496C195.967 2.90885 195.459 2.79937 195.021 2.72118V0.891421H211.351C215.459 0.891421 218.425 1.51698 220.246 2.7681C222.067 4.01921 222.978 5.86461 222.978 8.30429C222.978 9.43029 222.773 10.4234 222.364 11.2835C221.955 12.128 221.369 12.863 220.606 13.4886C219.914 14.0672 219.088 14.5677 218.128 14.9899C217.168 15.4122 216.137 15.7641 215.036 16.0456V16.4913C216.137 16.6164 217.281 16.8901 218.467 17.3123C219.653 17.7189 220.684 18.2507 221.559 18.9075ZM214.739 8.89075C214.739 7.04535 214.266 5.60657 213.32 4.5744C212.388 3.54223 210.984 3.02614 209.106 3.02614C208.837 3.02614 208.484 3.04178 208.047 3.07306C207.623 3.0887 207.256 3.10433 206.945 3.11997V15.4591H208.047C210.334 15.4591 212.021 14.8727 213.109 13.6997C214.196 12.5112 214.739 10.9082 214.739 8.89075ZM216.222 24.866C216.222 22.5514 215.601 20.7764 214.358 19.5409C213.116 18.3054 211.329 17.6877 209 17.6877C208.731 17.6877 208.371 17.7033 207.92 17.7346C207.482 17.7502 207.157 17.7659 206.945 17.7815V29.9564C207.072 30.5351 207.468 31.0277 208.131 31.4343C208.795 31.8253 209.6 32.0208 210.546 32.0208C212.226 32.0208 213.589 31.3952 214.633 30.1441C215.692 28.893 216.222 27.1336 216.222 24.866Z" fill="white"/>
<path d="M254.536 9.38338H252.926C252.517 8.11662 251.811 6.83423 250.808 5.53619C249.806 4.23816 248.81 3.47185 247.822 3.23727C247.398 3.12779 246.805 3.06524 246.043 3.0496C245.294 3.01832 244.673 3.00268 244.179 3.00268H239.816V15.8579H242.908C243.685 15.8579 244.391 15.7563 245.026 15.5529C245.661 15.3496 246.24 14.9587 246.763 14.38C247.088 14.0203 247.412 13.387 247.737 12.4799C248.076 11.5728 248.295 10.7831 248.394 10.1106H250.003V23.998H248.394C248.309 23.3412 248.09 22.5201 247.737 21.5349C247.398 20.534 247.073 19.8458 246.763 19.4705C246.297 18.9075 245.746 18.5244 245.111 18.321C244.475 18.1021 243.741 17.9926 242.908 17.9926H239.816V27.5871C239.816 28.588 239.879 29.3856 240.007 29.9799C240.148 30.5585 240.402 31.0042 240.769 31.317C241.122 31.6142 241.602 31.8097 242.209 31.9035C242.83 31.9973 243.671 32.0442 244.73 32.0442C245.224 32.0442 245.817 32.0364 246.509 32.0208C247.201 32.0051 247.808 31.9582 248.33 31.88C248.923 31.8018 249.474 31.6845 249.982 31.5281C250.505 31.3718 250.893 31.145 251.147 30.8479C251.825 30.0815 252.587 28.9164 253.434 27.3525C254.282 25.773 254.839 24.5923 255.108 23.8103H256.654L256.082 34.179H227.892V32.3492C228.287 32.3179 228.824 32.2554 229.501 32.1615C230.179 32.0677 230.659 31.9582 230.942 31.8331C231.478 31.5829 231.838 31.2701 232.022 30.8948C232.205 30.5038 232.297 30.0112 232.297 29.4169V5.93499C232.297 5.37198 232.22 4.91063 232.064 4.55094C231.909 4.1756 231.535 3.83937 230.942 3.54223C230.575 3.35456 230.059 3.18253 229.396 3.02614C228.732 2.86975 228.231 2.7681 227.892 2.72118V0.891421H254.536V9.38338Z" fill="white"/>
<path d="M285.839 9.38338H284.229C283.82 8.11662 283.114 6.83423 282.111 5.53619C281.109 4.23816 280.113 3.47185 279.125 3.23727C278.702 3.12779 278.109 3.06524 277.346 3.0496C276.598 3.01832 275.976 3.00268 275.482 3.00268H271.119V15.8579H274.211C274.988 15.8579 275.694 15.7563 276.329 15.5529C276.965 15.3496 277.544 14.9587 278.066 14.38C278.391 14.0203 278.716 13.387 279.04 12.4799C279.379 11.5728 279.598 10.7831 279.697 10.1106H281.307V23.998H279.697C279.612 23.3412 279.393 22.5201 279.04 21.5349C278.702 20.534 278.377 19.8458 278.066 19.4705C277.6 18.9075 277.05 18.5244 276.414 18.321C275.779 18.1021 275.045 17.9926 274.211 17.9926H271.119V27.5871C271.119 28.588 271.183 29.3856 271.31 29.9799C271.451 30.5585 271.705 31.0042 272.072 31.317C272.425 31.6142 272.905 31.8097 273.513 31.9035C274.134 31.9973 274.974 32.0442 276.033 32.0442C276.527 32.0442 277.12 32.0364 277.812 32.0208C278.504 32.0051 279.111 31.9582 279.633 31.88C280.226 31.8018 280.777 31.6845 281.285 31.5281C281.808 31.3718 282.196 31.145 282.45 30.8479C283.128 30.0815 283.891 28.9164 284.738 27.3525C285.585 25.773 286.143 24.5923 286.411 23.8103H287.957L287.385 34.179H259.195V32.3492C259.591 32.3179 260.127 32.2554 260.805 32.1615C261.483 32.0677 261.963 31.9582 262.245 31.8331C262.782 31.5829 263.142 31.2701 263.325 30.8948C263.509 30.5038 263.601 30.0112 263.601 29.4169V5.93499C263.601 5.37198 263.523 4.91063 263.368 4.55094C263.212 4.1756 262.838 3.83937 262.245 3.54223C261.878 3.35456 261.363 3.18253 260.699 3.02614C260.035 2.86975 259.534 2.7681 259.195 2.72118V0.891421H285.839V9.38338Z" fill="white"/>
<path d="M325 34.179H313.478C311.487 30.8009 309.828 28.111 308.501 26.1092C307.188 24.1075 305.55 21.7929 303.587 19.1655H302.423V29.2761C302.423 29.8391 302.514 30.3161 302.698 30.7071C302.896 31.0981 303.263 31.4265 303.799 31.6924C304.068 31.8175 304.484 31.9504 305.049 32.0912C305.628 32.2163 306.122 32.3023 306.531 32.3492V34.179H290.499V32.3492C290.908 32.3023 291.445 32.2397 292.108 32.1615C292.786 32.0677 293.266 31.9582 293.548 31.8331C294.085 31.5829 294.445 31.2701 294.629 30.8948C294.812 30.5038 294.904 30.0112 294.904 29.4169V5.93499C294.904 5.37198 294.826 4.90281 294.671 4.52748C294.516 4.15214 294.141 3.82373 293.548 3.54223C293.097 3.33892 292.56 3.16689 291.939 3.02614C291.332 2.88539 290.852 2.78374 290.499 2.72118V0.891421H307.357C311.127 0.891421 313.987 1.54826 315.935 2.86193C317.898 4.15996 318.879 6.13047 318.879 8.77346C318.879 11.1037 318.272 12.9803 317.058 14.4035C315.858 15.811 314.022 16.9135 311.551 17.7111C312.511 19.0874 313.627 20.6825 314.897 22.4966C316.182 24.3108 317.517 26.164 318.9 28.0563C319.338 28.6662 319.931 29.4169 320.679 30.3083C321.442 31.1841 322.113 31.7236 322.691 31.9269C323.016 32.0364 323.426 32.1302 323.92 32.2084C324.428 32.2866 324.788 32.3336 325 32.3492V34.179ZM310.577 9.43029C310.577 7.20956 310.012 5.59093 308.882 4.5744C307.767 3.54223 306.171 3.02614 304.096 3.02614H302.423V16.9605H304.032C306.108 16.9605 307.717 16.3584 308.861 15.1542C310.005 13.95 310.577 12.042 310.577 9.43029Z" fill="white"/>
</svg>
